<?xml version="1.0" encoding="UTF-8"?> <svg xmlns="http://www.w3.org/2000/svg" width="109" height="25" viewBox="0 0 109 25" fill="none"> <path d="M32.9709 7.85303H31.6783L35.4169 18.0349H36.6896L40.4283 7.85303H39.1357L36.1129 16.4241H35.9936L32.9709 7.85303ZM43.2472 7.85303H42.0142V18.0349H43.2472V7.85303ZM45.7193 18.0349H51.9437V16.9411H46.9522V13.4809H51.546V12.3871H46.9522V8.94678H51.8642V7.85303H45.7193V18.0349ZM55.9359 18.0349H57.2086L59.4558 9.92121H59.5353L61.7825 18.0349H63.0552L65.8393 7.85303H64.5865L62.4586 16.1456H62.3592L60.1916 7.85303H58.7995L56.6319 16.1456H56.5325L54.4047 7.85303H53.1518L55.9359 18.0349ZM72.546 7.85303H71.313V18.0349H72.546V7.85303ZM83.092 7.85303H81.8789V15.8672H81.7795L76.2113 7.85303H75.0181V18.0349H76.2511V10.0405H76.3505L81.8988 18.0349H83.092V7.85303ZM89.9142 18.0349L90.9384 15.1513H95.0549L96.079 18.0349H97.3716L93.633 7.85303H92.3603L88.6216 18.0349H89.9142ZM91.3262 14.0576L92.9569 9.46383H93.0364L94.6671 14.0576H91.3262ZM98.9576 18.0349H100.191V14.0576H102.418C102.507 14.0576 102.592 14.0576 102.676 14.0526L104.824 18.0349H106.256L103.954 13.8289C105.252 13.3864 105.858 12.3275 105.858 10.9752C105.858 9.17548 104.784 7.85303 102.398 7.85303H98.9576V18.0349ZM100.191 12.9439V8.94678H102.358C104.009 8.94678 104.645 9.75218 104.645 10.9752C104.645 12.1982 104.009 12.9439 102.378 12.9439H100.191Z" fill="#666666"></path> <path d="M13.416 3.485C13.3281 3.48531 13.2417 3.4625 13.1654 3.41885L10.5092 1.88017L7.84266 3.41885C7.78551 3.45177 7.72245 3.47311 7.65706 3.48165C7.59167 3.49019 7.52523 3.48577 7.46155 3.46864C7.39787 3.4515 7.33819 3.42199 7.28591 3.3818C7.23363 3.3416 7.18978 3.2915 7.15687 3.23435C7.12395 3.17721 7.10262 3.11414 7.09407 3.04875C7.08553 2.98336 7.08995 2.91693 7.10709 2.85324C7.12422 2.78956 7.15373 2.72988 7.19393 2.6776C7.23412 2.62532 7.28423 2.58148 7.34137 2.54856L10.2621 0.874115C10.3382 0.829774 10.4247 0.806412 10.5127 0.806412C10.6008 0.806412 10.6873 0.829774 10.7634 0.874115L13.6701 2.55552C13.7662 2.61047 13.8414 2.69567 13.884 2.79783C13.9266 2.89999 13.9341 3.01337 13.9055 3.12028C13.8769 3.2272 13.8137 3.32164 13.7258 3.38887C13.6379 3.4561 13.5302 3.49235 13.4195 3.49196" fill="#666666"></path> <path d="M10.5055 16.71C10.4382 16.71 10.3715 16.6965 10.3096 16.6702C10.2476 16.6439 10.1915 16.6055 10.1447 16.557C10.098 16.5086 10.0614 16.4513 10.0373 16.3885C10.0131 16.3256 10.0019 16.2586 10.0042 16.1913V12.8424C10.0042 12.7094 10.057 12.5819 10.151 12.4879C10.245 12.3939 10.3725 12.3411 10.5055 12.3411C10.6384 12.3411 10.766 12.3939 10.86 12.4879C10.954 12.5819 11.0068 12.7094 11.0068 12.8424V16.1913C11.0068 16.3242 10.954 16.4517 10.86 16.5457C10.766 16.6398 10.6384 16.6926 10.5055 16.6926" fill="#666666"></path> <path d="M0.516915 10.9312C0.383965 10.9312 0.25646 10.8784 0.16245 10.7844C0.0684399 10.6904 0.015625 10.5629 0.015625 10.4299V7.06712C0.015625 6.93417 0.0684399 6.80667 0.16245 6.71266C0.25646 6.61865 0.383965 6.56583 0.516915 6.56583C0.649865 6.56583 0.77737 6.61865 0.87138 6.71266C0.96539 6.80667 1.0182 6.93417 1.0182 7.06712V10.4299C1.0182 10.5629 0.96539 10.6904 0.87138 10.7844C0.77737 10.8784 0.649865 10.9312 0.516915 10.9312" fill="#666666"></path> <path d="M20.4896 10.9312C20.3566 10.9312 20.2291 10.8784 20.1351 10.7844C20.0411 10.6904 19.9883 10.5629 19.9883 10.4299V7.06712C19.9883 6.93417 20.0411 6.80667 20.1351 6.71266C20.2291 6.61865 20.3566 6.56583 20.4896 6.56583C20.6225 6.56583 20.75 6.61865 20.844 6.71266C20.938 6.80667 20.9909 6.93417 20.9909 7.06712V10.4299C20.9909 10.5629 20.938 10.6904 20.844 10.7844C20.75 10.8784 20.6225 10.9312 20.4896 10.9312" fill="#666666"></path> <path d="M20.4974 19.119C20.3662 19.119 20.2403 19.0676 20.1466 18.9758C20.0528 18.8841 19.9988 18.7592 19.9961 18.6281V15.2514C19.9961 15.1184 20.0489 14.9909 20.1429 14.8969C20.2369 14.8029 20.3644 14.7501 20.4974 14.7501V14.7501C20.6303 14.7501 20.7578 14.8029 20.8518 14.8969C20.9459 14.9909 20.9987 15.1184 20.9987 15.2514V18.6281C20.9987 18.7611 20.9459 18.8886 20.8518 18.9826C20.7578 19.0766 20.6303 19.1294 20.4974 19.1294V19.119Z" fill="#666666"></path> <path d="M0.516915 19.119C0.385755 19.119 0.259807 19.0676 0.166091 18.9758C0.0723757 18.8841 0.0183575 18.7592 0.015625 18.6281V15.2514C0.015625 15.1184 0.0684399 14.9909 0.16245 14.8969C0.25646 14.8029 0.383965 14.7501 0.516915 14.7501C0.649865 14.7501 0.77737 14.8029 0.87138 14.8969C0.96539 14.9909 1.0182 15.1184 1.0182 15.2514V18.6281C1.0182 18.7611 0.96539 18.8886 0.87138 18.9826C0.77737 19.0766 0.649865 19.1294 0.516915 19.1294" fill="#666666"></path> <path d="M10.5052 5.46926C10.3722 5.46926 10.2447 5.41644 10.1507 5.32243C10.0567 5.22842 10.0039 5.10092 10.0039 4.96797V1.30229C10.0039 1.16934 10.0567 1.04184 10.1507 0.947826C10.2447 0.853816 10.3722 0.801003 10.5052 0.801003C10.6381 0.801003 10.7657 0.853816 10.8597 0.947826C10.9537 1.04184 11.0065 1.16934 11.0065 1.30229V4.96797C11.0065 5.10092 10.9537 5.22842 10.8597 5.32243C10.7657 5.41644 10.6381 5.46926 10.5052 5.46926" fill="#666666"></path> <path d="M10.5052 24.8942C10.3722 24.8942 10.2447 24.8414 10.1507 24.7474C10.0567 24.6534 10.0039 24.5259 10.0039 24.3929V21.0336C10.0039 20.9007 10.0567 20.7731 10.1507 20.6791C10.2447 20.5851 10.3722 20.5323 10.5052 20.5323C10.6381 20.5323 10.7657 20.5851 10.8597 20.6791C10.9537 20.7731 11.0065 20.9007 11.0065 21.0336V24.3964C11.0056 24.5288 10.9523 24.6554 10.8584 24.7486C10.7645 24.8419 10.6375 24.8942 10.5052 24.8942" fill="#666666"></path> <path d="M10.5045 24.8942C10.4166 24.8944 10.3302 24.8716 10.2538 24.8281L7.32965 23.1536C7.21424 23.0872 7.12997 22.9776 7.09537 22.8489C7.06077 22.7203 7.07867 22.5832 7.14515 22.4678C7.21162 22.3524 7.32122 22.2682 7.44983 22.2336C7.57845 22.199 7.71553 22.2169 7.83094 22.2833L10.508 23.8325L13.1467 22.3042C13.2568 22.2637 13.3777 22.2631 13.4882 22.3025C13.5987 22.3419 13.6919 22.4188 13.7516 22.5199C13.8112 22.6209 13.8335 22.7397 13.8146 22.8555C13.7957 22.9713 13.7367 23.0768 13.648 23.1536L10.7586 24.8281C10.6824 24.8719 10.5959 24.8947 10.508 24.8942" fill="#666666"></path> <path d="M10.5092 13.3437C10.4214 13.3438 10.335 13.321 10.2586 13.2775L7.34137 11.5926C7.22596 11.5262 7.14169 11.4166 7.10709 11.288C7.07249 11.1594 7.0904 11.0223 7.15687 10.9069C7.22335 10.7914 7.33294 10.7072 7.46155 10.6726C7.59016 10.638 7.72725 10.6559 7.84266 10.7224L10.5092 12.261L13.1654 10.7224C13.2798 10.6636 13.4124 10.6511 13.5358 10.6874C13.6592 10.7237 13.7639 10.806 13.8283 10.9173C13.8927 11.0287 13.9118 11.1605 13.8817 11.2855C13.8516 11.4106 13.7746 11.5193 13.6667 11.5892L10.7599 13.2741C10.6836 13.3178 10.5972 13.3407 10.5092 13.3402" fill="#666666"></path> <path d="M17.5773 9.2533C17.4666 9.25369 17.3589 9.21744 17.271 9.15021C17.1831 9.08298 17.1199 8.98854 17.0913 8.88162C17.0626 8.77471 17.0702 8.66133 17.1128 8.55917C17.1554 8.457 17.2306 8.37181 17.3266 8.31686L20.2369 6.63545C20.294 6.60254 20.3571 6.5812 20.4225 6.57266C20.4879 6.56412 20.5543 6.56854 20.618 6.58567C20.6817 6.6028 20.7414 6.63231 20.7937 6.67251C20.8459 6.71271 20.8898 6.76281 20.9227 6.81996C20.9556 6.8771 20.9769 6.94017 20.9855 7.00556C20.994 7.07095 20.9896 7.13738 20.9725 7.20106C20.9553 7.26474 20.9258 7.32443 20.8856 7.3767C20.8454 7.42898 20.7953 7.47283 20.7382 7.50575L17.8279 9.18715C17.7516 9.2308 17.6652 9.25361 17.5773 9.2533" fill="#666666"></path> <path d="M20.4901 7.56842C20.4022 7.56889 20.3157 7.54607 20.2395 7.50227L17.3257 5.81739C17.2103 5.75091 17.1261 5.64131 17.0915 5.5127C17.0569 5.38409 17.0748 5.247 17.1412 5.13159C17.2077 5.01619 17.3173 4.93191 17.4459 4.89731C17.5745 4.86271 17.7116 4.88062 17.827 4.94709L20.7408 6.63198C20.8369 6.68693 20.912 6.77212 20.9546 6.87429C20.9972 6.97645 21.0048 7.08983 20.9762 7.19674C20.9475 7.30366 20.8843 7.3981 20.7964 7.46533C20.7085 7.53256 20.6008 7.56881 20.4901 7.56842" fill="#666666"></path> <path d="M3.42806 9.25331C3.34016 9.25362 3.25372 9.23081 3.17742 9.18717L0.267153 7.48835C0.151745 7.42188 0.0674697 7.31228 0.0328688 7.18367C-0.00173208 7.05506 0.0161764 6.91797 0.0826515 6.80256C0.149127 6.68715 0.258723 6.60288 0.387334 6.56828C0.515945 6.53368 0.653033 6.55158 0.768441 6.61806L3.68218 8.29947C3.77826 8.35441 3.85345 8.43961 3.89603 8.54177C3.93861 8.64393 3.94618 8.75731 3.91756 8.86423C3.88894 8.97114 3.82575 9.06558 3.73783 9.13281C3.64991 9.20005 3.54222 9.23629 3.43154 9.2359" fill="#666666"></path> <path d="M0.518692 7.5684C0.408014 7.56879 0.300317 7.53254 0.2124 7.46531C0.124483 7.39808 0.0612877 7.30364 0.032671 7.19672C0.00405441 7.08981 0.0116251 6.97643 0.0542026 6.87427C0.0967802 6.7721 0.171971 6.68691 0.268047 6.63196L3.17831 4.95403C3.29372 4.88756 3.43081 4.86965 3.55942 4.90425C3.68803 4.93885 3.79763 5.02313 3.8641 5.13854C3.93058 5.25394 3.94848 5.39103 3.91388 5.51964C3.87928 5.64825 3.795 5.75785 3.6796 5.82433L0.769335 7.48833C0.692969 7.53182 0.606574 7.55462 0.518692 7.55447" fill="#666666"></path> <path d="M17.5773 20.8004C17.4666 20.8007 17.3589 20.7645 17.271 20.6973C17.1831 20.63 17.1199 20.5356 17.0913 20.4287C17.0626 20.3218 17.0702 20.2084 17.1128 20.1062C17.1554 20.0041 17.2306 19.9189 17.3266 19.8639L20.2439 18.1825C20.301 18.1496 20.3641 18.1283 20.4295 18.1197C20.4949 18.1112 20.5613 18.1156 20.625 18.1327C20.6887 18.1499 20.7483 18.1794 20.8006 18.2196C20.8529 18.2598 20.8967 18.3099 20.9297 18.367C20.9626 18.4242 20.9839 18.4872 20.9924 18.5526C21.001 18.618 20.9966 18.6844 20.9794 18.7481C20.9623 18.8118 20.9328 18.8715 20.8926 18.9238C20.8524 18.976 20.8023 19.0199 20.7452 19.0528L17.8279 20.7342C17.7516 20.7779 17.6652 20.8007 17.5773 20.8004Z" fill="#666666"></path> <path d="M20.4901 19.119C20.4022 19.1194 20.3157 19.0966 20.2395 19.0528L17.3257 17.3714C17.2103 17.3049 17.1261 17.1953 17.0915 17.0667C17.0569 16.9381 17.0748 16.801 17.1412 16.6856C17.2077 16.5702 17.3173 16.4859 17.4459 16.4513C17.5745 16.4167 17.7116 16.4346 17.827 16.5011L20.7408 18.1825C20.8369 18.2375 20.912 18.3227 20.9546 18.4248C20.9972 18.527 21.0048 18.6404 20.9762 18.7473C20.9475 18.8542 20.8843 18.9486 20.7964 19.0159C20.7085 19.0831 20.6008 19.1193 20.4901 19.119Z" fill="#666666"></path> <path d="M3.42763 20.8038C3.33973 20.8041 3.25329 20.7813 3.17699 20.7377L0.263245 19.0528C0.147837 18.9863 0.0635641 18.8767 0.0289632 18.7481C-0.00563764 18.6195 0.0122682 18.4824 0.0787433 18.367C0.145218 18.2516 0.254815 18.1673 0.383426 18.1327C0.512037 18.0981 0.649127 18.116 0.764535 18.1825L3.67828 19.8674C3.77435 19.9223 3.84954 20.0075 3.89212 20.1097C3.9347 20.2119 3.94227 20.3252 3.91365 20.4321C3.88504 20.5391 3.82184 20.6335 3.73392 20.7007C3.64601 20.768 3.53831 20.8042 3.42763 20.8038" fill="#666666"></path> <path d="M0.518692 19.1189C0.408014 19.1193 0.300317 19.0831 0.2124 19.0159C0.124483 18.9486 0.0612877 18.8542 0.032671 18.7473C0.00405441 18.6404 0.0116251 18.527 0.0542026 18.4248C0.0967802 18.3227 0.171971 18.2375 0.268047 18.1825L3.17483 16.4976C3.23197 16.4647 3.29504 16.4434 3.36043 16.4348C3.42582 16.4263 3.49225 16.4307 3.55593 16.4478C3.61962 16.465 3.6793 16.4945 3.73158 16.5347C3.78386 16.5749 3.8277 16.625 3.86062 16.6821C3.89353 16.7393 3.91487 16.8023 3.92341 16.8677C3.93195 16.9331 3.92753 16.9995 3.9104 17.0632C3.89327 17.1269 3.86376 17.1866 3.82356 17.2389C3.78336 17.2911 3.73326 17.335 3.67612 17.3679L0.769335 19.0493C0.693031 19.093 0.606594 19.1158 0.518692 19.1155" fill="#666666"></path> <g opacity="0.2"> <g opacity="0.2"> <path opacity="0.2" d="M0.527561 7.35257C0.464738 7.35255 0.403675 7.33181 0.35384 7.29355C0.304004 7.2553 0.268177 7.20168 0.251916 7.141C0.235655 7.08032 0.239866 7.01596 0.263897 6.95792C0.287928 6.89987 0.330436 6.85138 0.384832 6.81995L10.3793 1.05164C10.4447 1.01533 10.5218 1.00619 10.594 1.02618C10.6661 1.04617 10.7275 1.09369 10.7649 1.15852C10.8024 1.22334 10.8129 1.30027 10.7941 1.37274C10.7754 1.44521 10.7289 1.50742 10.6647 1.54597L0.670288 7.31427C0.626898 7.33934 0.577674 7.35255 0.527561 7.35257" fill="#666666"></path> </g> </g> <g opacity="0.2"> <g opacity="0.2"> <path opacity="0.2" d="M0.527561 18.9031C0.464738 18.9031 0.403675 18.8824 0.35384 18.8441C0.304004 18.8059 0.268177 18.7522 0.251916 18.6915C0.235655 18.6309 0.239866 18.5665 0.263897 18.5085C0.287928 18.4504 0.330436 18.4019 0.384832 18.3705L20.3563 6.81996C20.4218 6.78365 20.4989 6.7745 20.571 6.79449C20.6432 6.81448 20.7046 6.86201 20.742 6.92683C20.7794 6.99166 20.7899 7.06859 20.7712 7.14106C20.7524 7.21353 20.706 7.27574 20.6418 7.31428L0.670288 18.8648C0.626898 18.8899 0.577674 18.9031 0.527561 18.9031" fill="#666666"></path> </g> </g> <g opacity="0.2"> <g opacity="0.2"> <path opacity="0.2" d="M20.4883 7.35256C20.4382 7.35254 20.3889 7.33933 20.3456 7.31426L10.365 1.54944C10.3009 1.51089 10.2544 1.44868 10.2357 1.37621C10.2169 1.30374 10.2274 1.22681 10.2648 1.16199C10.3023 1.09716 10.3636 1.04964 10.4358 1.02965C10.5079 1.00966 10.585 1.0188 10.6505 1.05511L20.631 6.82342C20.6854 6.85485 20.7279 6.90335 20.7519 6.96139C20.776 7.01944 20.7802 7.08379 20.7639 7.14447C20.7477 7.20515 20.7118 7.25877 20.662 7.29703C20.6122 7.33528 20.5511 7.35602 20.4883 7.35604" fill="#666666"></path> </g> </g> <g opacity="0.2"> <g opacity="0.2"> <path opacity="0.2" d="M20.4793 18.9031C20.4291 18.9033 20.3799 18.89 20.3365 18.8648L0.365027 7.31428C0.300859 7.27574 0.2544 7.21353 0.235657 7.14106C0.216914 7.06859 0.227386 6.99166 0.264819 6.92683C0.302252 6.86201 0.36365 6.81448 0.435786 6.79449C0.507923 6.7745 0.585024 6.78365 0.650483 6.81996L20.6255 18.3705C20.6799 18.4019 20.7224 18.4504 20.7464 18.5085C20.7704 18.5665 20.7746 18.6309 20.7584 18.6915C20.7421 18.7522 20.7063 18.8059 20.6565 18.8441C20.6066 18.8824 20.5456 18.9031 20.4827 18.9031" fill="#666666"></path> </g> </g> <g opacity="0.2"> <g opacity="0.2"> <path opacity="0.2" d="M10.4987 24.6853C10.4486 24.6853 10.3994 24.6721 10.356 24.647L0.365027 18.8648C0.300859 18.8263 0.2544 18.7641 0.235657 18.6916C0.216914 18.6191 0.227386 18.5422 0.264819 18.4774C0.302252 18.4125 0.36365 18.365 0.435786 18.345C0.507923 18.325 0.585024 18.3342 0.650483 18.3705L10.6449 24.1527C10.6993 24.1841 10.7418 24.2326 10.7659 24.2907C10.7899 24.3487 10.7941 24.4131 10.7779 24.4738C10.7616 24.5345 10.7258 24.5881 10.6759 24.6263C10.6261 24.6646 10.565 24.6853 10.5022 24.6853" fill="#666666"></path> </g> </g> <g opacity="0.2"> <g opacity="0.2"> <path opacity="0.2" d="M10.5119 24.6853C10.4491 24.6853 10.388 24.6646 10.3382 24.6263C10.2884 24.5881 10.2526 24.5345 10.2363 24.4738C10.22 24.4131 10.2242 24.3487 10.2483 24.2907C10.2723 24.2327 10.3148 24.1842 10.3692 24.1527L20.3497 18.3705C20.4152 18.3342 20.4923 18.325 20.5644 18.345C20.6366 18.365 20.698 18.4125 20.7354 18.4774C20.7728 18.5422 20.7833 18.6191 20.7646 18.6916C20.7458 18.7641 20.6994 18.8263 20.6352 18.8648L10.6547 24.6471C10.6113 24.6721 10.562 24.6853 10.5119 24.6853" fill="#666666"></path> </g> </g> <g opacity="0.2"> <g opacity="0.2"> <path opacity="0.2" d="M0.524589 18.9031C0.451867 18.9014 0.382548 18.8719 0.330789 18.8208C0.279029 18.7697 0.248735 18.7008 0.246094 18.6281V7.0671C0.246094 6.9914 0.276169 6.91879 0.329702 6.86525C0.383236 6.81172 0.455842 6.78165 0.53155 6.78165C0.607258 6.78165 0.679864 6.81172 0.733398 6.86525C0.786931 6.91879 0.817006 6.9914 0.817006 7.0671V18.6281C0.817006 18.7038 0.786931 18.7764 0.733398 18.8299C0.679864 18.8835 0.607258 18.9135 0.53155 18.9135" fill="#666666"></path> </g> </g> <g opacity="0.2"> <g opacity="0.2"> <path opacity="0.2" d="M20.4925 18.9031C20.4168 18.9031 20.3442 18.873 20.2906 18.8195C20.2371 18.766 20.207 18.6934 20.207 18.6177V7.06712C20.207 7.02963 20.2144 6.99251 20.2288 6.95788C20.2431 6.92325 20.2641 6.89178 20.2906 6.86527C20.3171 6.83876 20.3486 6.81774 20.3832 6.80339C20.4179 6.78904 20.455 6.78166 20.4925 6.78166C20.53 6.78166 20.5671 6.78904 20.6017 6.80339C20.6364 6.81774 20.6678 6.83876 20.6943 6.86527C20.7208 6.89178 20.7419 6.92325 20.7562 6.95788C20.7706 6.99251 20.7779 7.02963 20.7779 7.06712V18.6281C20.7779 18.7038 20.7479 18.7764 20.6943 18.8299C20.6408 18.8835 20.5682 18.9136 20.4925 18.9136" fill="#666666"></path> </g> </g> <g opacity="0.2"> <g opacity="0.2"> <path opacity="0.2" d="M10.5081 24.6505C10.4324 24.6505 10.3598 24.6205 10.3063 24.5669C10.2527 24.5134 10.2227 24.4408 10.2227 24.3651V1.30229C10.2227 1.22658 10.2527 1.15397 10.3063 1.10044C10.3598 1.04691 10.4324 1.01683 10.5081 1.01683C10.5838 1.01683 10.6564 1.04691 10.71 1.10044C10.7635 1.15397 10.7936 1.22658 10.7936 1.30229V24.3651C10.7936 24.4408 10.7635 24.5134 10.71 24.5669C10.6564 24.6205 10.5838 24.6505 10.5081 24.6505" fill="#666666"></path> </g> </g> </svg> 